<svg xmlns="http://www.w3.org/2000/svg" fill="none" viewBox="0 0 24 24" stroke-width="1.5" stroke="white" class="size-6">
    <!-- Define the shadow filter -->
    <defs>
        <filter id="shadow" x="-50%" y="-50%" width="200%" height="200%">
            <feDropShadow dx="2" dy="2" stdDeviation="2" flood-color="black" flood-opacity="0.5" />
        </filter>
    </defs>

    <!-- Apply the shadow filter -->
    <g filter="url(#shadow)">
        <path stroke-linecap="round" stroke-linejoin="round" d="m20.25 7.5-.625 10.632a2.25 2.25 0 0 1-2.247 2.118H6.622a2.25 2.25 0 0 1-2.247-2.118L3.75 7.5m8.25 3v6.75m0 0-3-3m3 3 3-3M3.375 7.5h17.25c.621 0 1.125-.504 1.125-1.125v-1.5c0-.621-.504-1.125-1.125-1.125H3.375c-.621 0-1.125.504-1.125 1.125v1.5c0 .621.504 1.125 1.125 1.125Z" />
    </g>
</svg>
